<svg width="48" height="48" viewBox="0 0 48 48" fill="none" xmlns="http://www.w3.org/2000/svg">
<path d="M21 1.875C21 2.91053 20.1605 3.75 19.125 3.75C18.0895 3.75 17.25 2.91053 17.25 1.875C17.25 0.839466 18.0895 0 19.125 0C20.1605 0 21 0.839466 21 1.875Z" fill="black"/>
<path d="M30.75 1.875C30.75 2.91053 29.9105 3.75 28.875 3.75C27.8395 3.75 27 2.91053 27 1.875C27 0.839466 27.8395 0 28.875 0C29.9105 0 30.75 0.839466 30.75 1.875Z" fill="black"/>
<path d="M11.625 9.4125C11.625 10.9658 10.3658 12.225 8.8125 12.225C7.2592 12.225 6 10.9658 6 9.4125C6 7.8592 7.2592 6.6 8.8125 6.6C10.3658 6.6 11.625 7.8592 11.625 9.4125Z" fill="black"/>
<path d="M21.75 9.4125C21.75 10.9658 20.4908 12.225 18.9375 12.225C17.3842 12.225 16.125 10.9658 16.125 9.4125C16.125 7.8592 17.3842 6.6 18.9375 6.6C20.4908 6.6 21.75 7.8592 21.75 9.4125Z" fill="black"/>
<path d="M31.875 9.4125C31.875 10.9658 30.6158 12.225 29.0625 12.225C27.5092 12.225 26.25 10.9658 26.25 9.4125C26.25 7.8592 27.5092 6.6 29.0625 6.6C30.6158 6.6 31.875 7.8592 31.875 9.4125Z" fill="black"/>
<path d="M42 9.4125C42 10.9658 40.7408 12.225 39.1875 12.225C37.6342 12.225 36.375 10.9658 36.375 9.4125C36.375 7.8592 37.6342 6.6 39.1875 6.6C40.7408 6.6 42 7.8592 42 9.4125Z" fill="black"/>
<path d="M3.75 18.825C3.75 19.8605 2.91053 20.7 1.875 20.7C0.839466 20.7 0 19.8605 0 18.825C0 17.7895 0.839466 16.95 1.875 16.95C2.91053 16.95 3.75 17.7895 3.75 18.825Z" fill="black"/>
<path d="M12.225 18.825C12.225 20.3783 10.9658 21.6375 9.4125 21.6375C7.8592 21.6375 6.6 20.3783 6.6 18.825C6.6 17.2717 7.8592 16.0125 9.4125 16.0125C10.9658 16.0125 12.225 17.2717 12.225 18.825Z" fill="black"/>
<path d="M22.575 18.825C22.575 20.8961 20.8961 22.575 18.825 22.575C16.7539 22.575 15.075 20.8961 15.075 18.825C15.075 16.7539 16.7539 15.075 18.825 15.075C20.8961 15.075 22.575 16.7539 22.575 18.825Z" fill="black"/>
<path d="M32.925 18.825C32.925 20.8961 31.2461 22.575 29.175 22.575C27.1039 22.575 25.425 20.8961 25.425 18.825C25.425 16.7539 27.1039 15.075 29.175 15.075C31.2461 15.075 32.925 16.7539 32.925 18.825Z" fill="black"/>
<path d="M41.4 18.825C41.4 20.3783 40.1408 21.6375 38.5875 21.6375C37.0342 21.6375 35.775 20.3783 35.775 18.825C35.775 17.2717 37.0342 16.0125 38.5875 16.0125C40.1408 16.0125 41.4 17.2717 41.4 18.825Z" fill="black"/>
<path d="M48 18.825C48 19.8605 47.1605 20.7 46.125 20.7C45.0895 20.7 44.25 19.8605 44.25 18.825C44.25 17.7895 45.0895 16.95 46.125 16.95C47.1605 16.95 48 17.7895 48 18.825Z" fill="black"/>
<path d="M3.75 29.175C3.75 30.2105 2.91053 31.05 1.875 31.05C0.839466 31.05 0 30.2105 0 29.175C0 28.1395 0.839466 27.3 1.875 27.3C2.91053 27.3 3.75 28.1395 3.75 29.175Z" fill="black"/>
<path d="M12.225 29.175C12.225 30.7283 10.9658 31.9875 9.4125 31.9875C7.8592 31.9875 6.6 30.7283 6.6 29.175C6.6 27.6217 7.8592 26.3625 9.4125 26.3625C10.9658 26.3625 12.225 27.6217 12.225 29.175Z" fill="black"/>
<path d="M22.575 29.175C22.575 31.2461 20.8961 32.925 18.825 32.925C16.7539 32.925 15.075 31.2461 15.075 29.175C15.075 27.1039 16.7539 25.425 18.825 25.425C20.8961 25.425 22.575 27.1039 22.575 29.175Z" fill="black"/>
<path d="M32.925 29.175C32.925 31.2461 31.2461 32.925 29.175 32.925C27.1039 32.925 25.425 31.2461 25.425 29.175C25.425 27.1039 27.1039 25.425 29.175 25.425C31.2461 25.425 32.925 27.1039 32.925 29.175Z" fill="black"/>
<path d="M41.4 29.175C41.4 30.7283 40.1408 31.9875 38.5875 31.9875C37.0342 31.9875 35.775 30.7283 35.775 29.175C35.775 27.6217 37.0342 26.3625 38.5875 26.3625C40.1408 26.3625 41.4 27.6217 41.4 29.175Z" fill="black"/>
<path d="M48 29.175C48 30.2105 47.1605 31.05 46.125 31.05C45.0895 31.05 44.25 30.2105 44.25 29.175C44.25 28.1395 45.0895 27.3 46.125 27.3C47.1605 27.3 48 28.1395 48 29.175Z" fill="black"/>
<path d="M11.625 38.5875C11.625 40.1408 10.3658 41.4 8.8125 41.4C7.2592 41.4 6 40.1408 6 38.5875C6 37.0342 7.2592 35.775 8.8125 35.775C10.3658 35.775 11.625 37.0342 11.625 38.5875Z" fill="black"/>
<path d="M21.75 38.5875C21.75 40.1408 20.4908 41.4 18.9375 41.4C17.3842 41.4 16.125 40.1408 16.125 38.5875C16.125 37.0342 17.3842 35.775 18.9375 35.775C20.4908 35.775 21.75 37.0342 21.75 38.5875Z" fill="black"/>
<path d="M31.875 38.5875C31.875 40.1408 30.6158 41.4 29.0625 41.4C27.5092 41.4 26.25 40.1408 26.25 38.5875C26.25 37.0342 27.5092 35.775 29.0625 35.775C30.6158 35.775 31.875 37.0342 31.875 38.5875Z" fill="black"/>
<path d="M42 38.5875C42 40.1408 40.7408 41.4 39.1875 41.4C37.6342 41.4 36.375 40.1408 36.375 38.5875C36.375 37.0342 37.6342 35.775 39.1875 35.775C40.7408 35.775 42 37.0342 42 38.5875Z" fill="black"/>
<path d="M21 46.125C21 47.1605 20.1605 48 19.125 48C18.0895 48 17.25 47.1605 17.25 46.125C17.25 45.0895 18.0895 44.25 19.125 44.25C20.1605 44.25 21 45.0895 21 46.125Z" fill="black"/>
<path d="M30.75 46.125C30.75 47.1605 29.9105 48 28.875 48C27.8395 48 27 47.1605 27 46.125C27 45.0895 27.8395 44.25 28.875 44.25C29.9105 44.25 30.75 45.0895 30.75 46.125Z" fill="black"/>
</svg>
