<svg width="49" height="49" viewBox="0 0 49 49" fill="none" xmlns="http://www.w3.org/2000/svg">
<path d="M21.8652 2.63098C21.8652 3.66652 21.0258 4.50598 19.9902 4.50598C18.9547 4.50598 18.1152 3.66652 18.1152 2.63098C18.1152 1.59545 18.9547 0.755981 19.9902 0.755981C21.0258 0.755981 21.8652 1.59545 21.8652 2.63098Z" fill="#DFFD56"/>
<path d="M31.6152 2.63098C31.6152 3.66652 30.7758 4.50598 29.7402 4.50598C28.7047 4.50598 27.8652 3.66652 27.8652 2.63098C27.8652 1.59545 28.7047 0.755981 29.7402 0.755981C30.7758 0.755981 31.6152 1.59545 31.6152 2.63098Z" fill="#DFFD56"/>
<path d="M12.4902 10.1685C12.4902 11.7218 11.231 12.981 9.67773 12.981C8.12443 12.981 6.86523 11.7218 6.86523 10.1685C6.86523 8.61518 8.12443 7.35598 9.67773 7.35598C11.231 7.35598 12.4902 8.61518 12.4902 10.1685Z" fill="#DFFD56"/>
<path d="M22.6152 10.1685C22.6152 11.7218 21.356 12.981 19.8027 12.981C18.2494 12.981 16.9902 11.7218 16.9902 10.1685C16.9902 8.61518 18.2494 7.35598 19.8027 7.35598C21.356 7.35598 22.6152 8.61518 22.6152 10.1685Z" fill="#DFFD56"/>
<path d="M32.7402 10.1685C32.7402 11.7218 31.481 12.981 29.9277 12.981C28.3744 12.981 27.1152 11.7218 27.1152 10.1685C27.1152 8.61518 28.3744 7.35598 29.9277 7.35598C31.481 7.35598 32.7402 8.61518 32.7402 10.1685Z" fill="#DFFD56"/>
<path d="M42.8652 10.1685C42.8652 11.7218 41.606 12.981 40.0527 12.981C38.4994 12.981 37.2402 11.7218 37.2402 10.1685C37.2402 8.61518 38.4994 7.35598 40.0527 7.35598C41.606 7.35598 42.8652 8.61518 42.8652 10.1685Z" fill="#DFFD56"/>
<path d="M4.61523 19.581C4.61523 20.6165 3.77577 21.456 2.74023 21.456C1.7047 21.456 0.865234 20.6165 0.865234 19.581C0.865234 18.5454 1.7047 17.706 2.74023 17.706C3.77577 17.706 4.61523 18.5454 4.61523 19.581Z" fill="#DFFD56"/>
<path d="M13.0902 19.581C13.0902 21.1343 11.831 22.3935 10.2777 22.3935C8.72443 22.3935 7.46523 21.1343 7.46523 19.581C7.46523 18.0277 8.72443 16.7685 10.2777 16.7685C11.831 16.7685 13.0902 18.0277 13.0902 19.581Z" fill="#DFFD56"/>
<path d="M23.4402 19.581C23.4402 21.6521 21.7613 23.331 19.6902 23.331C17.6192 23.331 15.9402 21.6521 15.9402 19.581C15.9402 17.5099 17.6192 15.831 19.6902 15.831C21.7613 15.831 23.4402 17.5099 23.4402 19.581Z" fill="#DFFD56"/>
<path d="M33.7902 19.581C33.7902 21.6521 32.1113 23.331 30.0402 23.331C27.9692 23.331 26.2902 21.6521 26.2902 19.581C26.2902 17.5099 27.9692 15.831 30.0402 15.831C32.1113 15.831 33.7902 17.5099 33.7902 19.581Z" fill="#DFFD56"/>
<path d="M42.2652 19.581C42.2652 21.1343 41.006 22.3935 39.4527 22.3935C37.8994 22.3935 36.6402 21.1343 36.6402 19.581C36.6402 18.0277 37.8994 16.7685 39.4527 16.7685C41.006 16.7685 42.2652 18.0277 42.2652 19.581Z" fill="#DFFD56"/>
<path d="M48.8652 19.581C48.8652 20.6165 48.0258 21.456 46.9902 21.456C45.9547 21.456 45.1152 20.6165 45.1152 19.581C45.1152 18.5454 45.9547 17.706 46.9902 17.706C48.0258 17.706 48.8652 18.5454 48.8652 19.581Z" fill="#DFFD56"/>
<path d="M4.61523 29.931C4.61523 30.9665 3.77577 31.806 2.74023 31.806C1.7047 31.806 0.865234 30.9665 0.865234 29.931C0.865234 28.8954 1.7047 28.056 2.74023 28.056C3.77577 28.056 4.61523 28.8954 4.61523 29.931Z" fill="#DFFD56"/>
<path d="M13.0902 29.931C13.0902 31.4843 11.831 32.7435 10.2777 32.7435C8.72443 32.7435 7.46523 31.4843 7.46523 29.931C7.46523 28.3777 8.72443 27.1185 10.2777 27.1185C11.831 27.1185 13.0902 28.3777 13.0902 29.931Z" fill="#DFFD56"/>
<path d="M23.4402 29.931C23.4402 32.0021 21.7613 33.681 19.6902 33.681C17.6192 33.681 15.9402 32.0021 15.9402 29.931C15.9402 27.8599 17.6192 26.181 19.6902 26.181C21.7613 26.181 23.4402 27.8599 23.4402 29.931Z" fill="#DFFD56"/>
<path d="M33.7902 29.931C33.7902 32.0021 32.1113 33.681 30.0402 33.681C27.9692 33.681 26.2902 32.0021 26.2902 29.931C26.2902 27.8599 27.9692 26.181 30.0402 26.181C32.1113 26.181 33.7902 27.8599 33.7902 29.931Z" fill="#DFFD56"/>
<path d="M42.2652 29.931C42.2652 31.4843 41.006 32.7435 39.4527 32.7435C37.8994 32.7435 36.6402 31.4843 36.6402 29.931C36.6402 28.3777 37.8994 27.1185 39.4527 27.1185C41.006 27.1185 42.2652 28.3777 42.2652 29.931Z" fill="#DFFD56"/>
<path d="M48.8652 29.931C48.8652 30.9665 48.0258 31.806 46.9902 31.806C45.9547 31.806 45.1152 30.9665 45.1152 29.931C45.1152 28.8954 45.9547 28.056 46.9902 28.056C48.0258 28.056 48.8652 28.8954 48.8652 29.931Z" fill="#DFFD56"/>
<path d="M12.4902 39.3435C12.4902 40.8968 11.231 42.156 9.67773 42.156C8.12443 42.156 6.86523 40.8968 6.86523 39.3435C6.86523 37.7902 8.12443 36.531 9.67773 36.531C11.231 36.531 12.4902 37.7902 12.4902 39.3435Z" fill="#DFFD56"/>
<path d="M22.6152 39.3435C22.6152 40.8968 21.356 42.156 19.8027 42.156C18.2494 42.156 16.9902 40.8968 16.9902 39.3435C16.9902 37.7902 18.2494 36.531 19.8027 36.531C21.356 36.531 22.6152 37.7902 22.6152 39.3435Z" fill="#DFFD56"/>
<path d="M32.7402 39.3435C32.7402 40.8968 31.481 42.156 29.9277 42.156C28.3744 42.156 27.1152 40.8968 27.1152 39.3435C27.1152 37.7902 28.3744 36.531 29.9277 36.531C31.481 36.531 32.7402 37.7902 32.7402 39.3435Z" fill="#DFFD56"/>
<path d="M42.8652 39.3435C42.8652 40.8968 41.606 42.156 40.0527 42.156C38.4994 42.156 37.2402 40.8968 37.2402 39.3435C37.2402 37.7902 38.4994 36.531 40.0527 36.531C41.606 36.531 42.8652 37.7902 42.8652 39.3435Z" fill="#DFFD56"/>
<path d="M21.8652 46.881C21.8652 47.9165 21.0258 48.756 19.9902 48.756C18.9547 48.756 18.1152 47.9165 18.1152 46.881C18.1152 45.8454 18.9547 45.006 19.9902 45.006C21.0258 45.006 21.8652 45.8454 21.8652 46.881Z" fill="#DFFD56"/>
<path d="M31.6152 46.881C31.6152 47.9165 30.7758 48.756 29.7402 48.756C28.7047 48.756 27.8652 47.9165 27.8652 46.881C27.8652 45.8454 28.7047 45.006 29.7402 45.006C30.7758 45.006 31.6152 45.8454 31.6152 46.881Z" fill="#DFFD56"/>
</svg>
