<svg width="33" height="33" viewBox="0 0 33 33" fill="none" xmlns="http://www.w3.org/2000/svg">
<circle cx="16.5" cy="16.5212" r="12" fill="black"/>
<path d="M10.5624 21.0449C10.1719 21.4354 10.1719 22.0686 10.5624 22.4591C10.9529 22.8496 11.5861 22.8496 11.9766 22.4591L10.5624 21.0449ZM22.7311 11.2905C22.7311 10.7382 22.2834 10.2905 21.7311 10.2905L12.7311 10.2905C12.1788 10.2905 11.7311 10.7382 11.7311 11.2905C11.7311 11.8428 12.1788 12.2905 12.7311 12.2905L20.7311 12.2905L20.7311 20.2905C20.7311 20.8428 21.1788 21.2905 21.7311 21.2905C22.2834 21.2905 22.7311 20.8428 22.7311 20.2905L22.7311 11.2905ZM11.9766 22.4591L22.4382 11.9976L21.024 10.5834L10.5624 21.0449L11.9766 22.4591Z" fill="#DFFD56"/>
</svg>
