<svg width="24" height="25" viewBox="0 0 24 25" fill="none" xmlns="http://www.w3.org/2000/svg">
<circle cx="12" cy="12.8535" r="12" fill="#DFFD56"/>
<path d="M6.06242 17.3771C5.6719 17.7676 5.6719 18.4008 6.06242 18.7913C6.45295 19.1819 7.08611 19.1819 7.47664 18.7913L6.06242 17.3771ZM18.2311 7.62269C18.2311 7.0704 17.7834 6.62269 17.2311 6.62269L8.23107 6.62269C7.67879 6.62269 7.23107 7.07041 7.23107 7.62269C7.23107 8.17497 7.67879 8.62269 8.23107 8.62269L16.2311 8.62269L16.2311 16.6227C16.2311 17.175 16.6788 17.6227 17.2311 17.6227C17.7834 17.6227 18.2311 17.175 18.2311 16.6227L18.2311 7.62269ZM7.47664 18.7913L17.9382 8.3298L16.524 6.91558L6.06242 17.3771L7.47664 18.7913Z" fill="black"/>
</svg>
